<svg class="w-6 h-6" viewBox="0 0 48 48" xmlns="http://www.w3.org/2000/svg">
  <path fill="#4285F4" d="M24 9.5c3.01 0 5.72 1.08 7.85 2.85l5.83-5.83C33.64 2.42 29.14 0 24 0 14.7 0 6.98 6.19 3.66 14.83l6.92 5.38C12.41 13.26 17.75 9.5 24 9.5z"></path>
  <path fill="#34A853" d="M46.1 24.55c0-1.5-.13-2.95-.36-4.35H24v8.23h12.46c-.53 2.83-2.15 5.23-4.57 6.9l6.92 5.38c4.06-3.75 6.29-9.28 6.29-15.16z"></path>
  <path fill="#FBBC05" d="M10.58 28.27c-1.1-3.29-1.1-6.8 0-10.1L3.66 12.8c-3.03 6.07-3.03 13.3 0 19.37l6.92-5.38z"></path>
  <path fill="#EA4335" d="M24 48c5.14 0 9.64-1.71 12.89-4.63l-6.92-5.38c-1.93 1.29-4.37 2.06-6.97 2.06-6.25 0-11.59-3.76-13.42-9.15L3.66 33.2C6.98 41.81 14.7 48 24 48z"></path>
  <path fill="none" d="M0 0h48v48H0z"></path>
</svg>
