<svg xmlns="http://www.w3.org/2000/svg" viewBox="0 0 448 512" fill="white" class="w-6 h-6">
  <path d="M224.1 141c-63.6 0-114.9 51.3-114.9 114.9S160.5 370.9 224.1 370.9 339 319.6 339 256 287.7 141 224.1 141zm0 186.6c-39.6 0-71.7-32.1-71.7-71.7s32.1-71.7 71.7-71.7 71.7 32.1 71.7 71.7-32.1 71.7-71.7 71.7zm146.4-194.3c0 14.9-12 26.9-26.9 26.9s-26.9-12-26.9-26.9 12-26.9 26.9-26.9 26.9 12 26.9 26.9zm76.1 27.2c-1.7-35.7-9.9-67.3-36.2-93.6S384.8 0 349.1 0H98.9C63.2 0 31.6 8.2 5.3 34.5S0 98.2 0 133.9v230.2c0 35.7 8.2 67.3 34.5 93.6S63.2 512 98.9 512h250.2c35.7 0 67.3-8.2 93.6-34.5s34.5-57.9 34.5-93.6V133.9zM398.8 388c-7.8 19.5-22.9 34.6-42.4 42.4-29.4 11.7-99.2 9-132.4 9s-103 2.6-132.4-9c-19.5-7.8-34.6-22.9-42.4-42.4-11.7-29.4-9-99.2-9-132.4s-2.6-103 9-132.4c7.8-19.5 22.9-34.6 42.4-42.4C92.6 48 162.4 50.6 195.6 50.6s103-2.6 132.4 9c19.5 7.8 34.6 22.9 42.4 42.4 11.7 29.4 9 99.2 9 132.4s2.6 103-9 132.4z"></path>
</svg>
